<svg id="visual" viewBox="0 0 900 600" width="900" height="600" xmlns="http://www.w3.org/2000/svg" xmlns:xlink="http://www.w3.org/1999/xlink" version="1.1"><path d="M0 121L13.7 118C27.3 115 54.7 109 82 108C109.3 107 136.7 111 163.8 130C191 149 218 183 245.2 195C272.3 207 299.7 197 327 201C354.3 205 381.7 223 409 239C436.3 255 463.7 269 491 266C518.3 263 545.7 243 573 224C600.3 205 627.7 187 654.8 183C682 179 709 189 736.2 186C763.3 183 790.7 167 818 175C845.3 183 872.7 215 886.3 231L900 247L900 0L886.3 0C872.7 0 845.3 0 818 0C790.7 0 763.3 0 736.2 0C709 0 682 0 654.8 0C627.7 0 600.3 0 573 0C545.7 0 518.3 0 491 0C463.7 0 436.3 0 409 0C381.7 0 354.3 0 327 0C299.7 0 272.3 0 245.2 0C218 0 191 0 163.8 0C136.7 0 109.3 0 82 0C54.7 0 27.3 0 13.7 0L0 0Z" fill="#2a2b3c"></path><path d="M0 361L13.7 356C27.3 351 54.7 341 82 334C109.3 327 136.7 323 163.8 319C191 315 218 311 245.2 314C272.3 317 299.7 327 327 347C354.3 367 381.7 397 409 414C436.3 431 463.7 435 491 419C518.3 403 545.7 367 573 351C600.3 335 627.7 339 654.8 347C682 355 709 367 736.2 363C763.3 359 790.7 339 818 338C845.3 337 872.7 355 886.3 364L900 373L900 245L886.3 229C872.7 213 845.3 181 818 173C790.7 165 763.3 181 736.2 184C709 187 682 177 654.8 181C627.7 185 600.3 203 573 222C545.7 241 518.3 261 491 264C463.7 267 436.3 253 409 237C381.7 221 354.3 203 327 199C299.7 195 272.3 205 245.2 193C218 181 191 147 163.8 128C136.7 109 109.3 105 82 106C54.7 107 27.3 113 13.7 116L0 119Z" fill="#1c1d27"></path><path d="M0 481L13.7 476C27.3 471 54.7 461 82 458C109.3 455 136.7 459 163.8 455C191 451 218 439 245.2 432C272.3 425 299.7 423 327 433C354.3 443 381.7 465 409 478C436.3 491 463.7 495 491 484C518.3 473 545.7 447 573 434C600.3 421 627.7 421 654.8 426C682 431 709 441 736.2 442C763.3 443 790.7 435 818 434C845.3 433 872.7 439 886.3 442L900 445L900 371L886.3 362C872.7 353 845.3 335 818 336C790.7 337 763.3 357 736.2 361C709 365 682 353 654.8 345C627.7 337 600.3 333 573 349C545.7 365 518.3 401 491 417C463.7 433 436.3 429 409 412C381.7 395 354.3 365 327 345C299.7 325 272.3 315 245.2 312C218 309 191 313 163.8 317C136.7 321 109.3 325 82 332C54.7 339 27.3 349 13.7 354L0 359Z" fill="#0d0d13"></path><path d="M0 553L13.7 548C27.3 543 54.7 533 82 532C109.3 531 136.7 539 163.8 539C191 539 218 531 245.2 525C272.3 519 299.7 515 327 521C354.3 527 381.7 543 409 547C436.3 551 463.7 543 491 534C518.3 525 545.7 515 573 504C600.3 493 627.7 481 654.8 481C682 481 709 493 736.2 493C763.3 493 790.7 481 818 483C845.3 485 872.7 501 886.3 509L900 517L900 443L886.3 440C872.7 437 845.3 431 818 432C790.7 433 763.3 441 736.2 440C709 439 682 429 654.8 424C627.7 419 600.3 419 573 432C545.7 445 518.3 471 491 482C463.7 493 436.3 489 409 476C381.7 463 354.3 441 327 431C299.7 421 272.3 423 245.2 430C218 437 191 449 163.8 453C136.7 457 109.3 453 82 456C54.7 459 27.3 469 13.7 474L0 479Z" fill="#0c0c11"></path><path d="M0 601L13.7 601C27.3 601 54.7 601 82 601C109.3 601 136.7 601 163.8 601C191 601 218 601 245.2 601C272.3 601 299.7 601 327 601C354.3 601 381.7 601 409 601C436.3 601 463.7 601 491 601C518.3 601 545.7 601 573 601C600.3 601 627.7 601 654.8 601C682 601 709 601 736.2 601C763.3 601 790.7 601 818 601C845.3 601 872.7 601 886.3 601L900 601L900 515L886.3 507C872.7 499 845.3 483 818 481C790.7 479 763.3 491 736.2 491C709 491 682 479 654.8 479C627.7 479 600.3 491 573 502C545.7 513 518.3 523 491 532C463.7 541 436.3 549 409 545C381.7 541 354.3 525 327 519C299.7 513 272.3 517 245.2 523C218 529 191 537 163.8 537C136.7 537 109.3 529 82 530C54.7 531 27.3 541 13.7 546L0 551Z" fill="#0a0a0f"></path></svg>